<svg width="169" height="117" viewBox="0 0 169 117" fill="none" xmlns="http://www.w3.org/2000/svg">
<g clip-path="url(#clip0_6290_34069)">
<path fill-rule="evenodd" clip-rule="evenodd" d="M154.522 90.9614C154.398 90.5922 154.14 90.2942 153.793 90.1216C153.447 89.949 153.055 89.9232 152.69 90.0478L143.233 93.2832C143.042 93.3481 142.839 93.3188 142.675 93.2013C142.511 93.0839 142.415 92.9007 142.412 92.6978L142.279 82.6358C142.274 82.2337 142.11 81.861 141.818 81.587C141.525 81.313 141.145 81.1742 140.771 81.1991L135.594 81.1983C134.829 81.2445 134.232 81.8877 134.235 82.65L134.042 92.5253C134.043 92.7325 133.947 92.9211 133.779 93.0403C133.61 93.1604 133.402 93.1871 133.209 93.1177L124.232 89.8307C123.491 89.5594 122.664 89.9446 122.386 90.6883L120.433 95.9288C120.296 96.2971 120.31 96.6974 120.475 97.0541C120.639 97.4117 120.931 97.6821 121.298 97.8156L130.925 101.295C131.11 101.361 131.249 101.508 131.307 101.698C131.366 101.886 131.335 102.087 131.221 102.249L125.306 110.609C125.078 110.932 124.991 111.325 125.06 111.715C125.13 112.106 125.348 112.443 125.674 112.665L130.333 115.842C130.579 116.01 130.86 116.09 131.139 116.09C131.6 116.09 132.055 115.869 132.334 115.458L137.879 107.287C137.993 107.119 138.175 107.019 138.377 107.015C138.576 107.008 138.764 107.101 138.887 107.264L144.804 115.179C145.268 115.798 146.129 115.944 146.765 115.51L151.248 112.462C151.578 112.237 151.797 111.895 151.864 111.499C151.932 111.102 151.837 110.706 151.6 110.384L145.611 102.235C145.492 102.072 145.457 101.868 145.517 101.675C145.577 101.482 145.72 101.333 145.91 101.268L155.371 98.0326C156.126 97.7738 156.531 96.9447 156.276 96.1832L154.522 90.9614Z" fill="#CDCDCD"/>
<path fill-rule="evenodd" clip-rule="evenodd" d="M7.44882 82.5251C5.57959 83.3736 4.09817 84.5233 3.00377 85.9741C1.90857 87.4259 1.13374 89.1308 0.680085 91.0878C0.226427 93.0448 0 95.1332 0 97.3512L0 99.8957C0 102.114 0.226427 104.201 0.680085 106.158C1.13374 108.116 1.90857 109.821 3.00377 111.272C4.09817 112.724 5.57959 113.873 7.44882 114.722C10.6341 116.162 14.0835 116.054 17.4261 116.082C21.2954 116.115 25.1439 116.059 29.0028 115.668C29.609 115.608 34.8907 115.06 34.8939 114.426V106.078C32.8502 106.677 31.6515 107.006 31.2977 107.066C28.0088 107.619 24.6855 108.093 21.3718 108.246C18.3841 108.383 15.2944 108.42 12.4287 107.227C11.2934 106.755 10.4664 106.086 9.94525 105.221C9.42495 104.357 9.11742 103.337 9.02428 102.163C8.93034 100.989 8.88457 100.302 8.88457 98.8994C8.88457 97.4967 8.93034 96.8093 9.02428 95.6351C9.11742 94.4609 9.42495 93.4506 9.94525 92.6011C10.4664 91.7535 11.2934 91.0933 12.4287 90.6195C15.512 89.3345 18.9365 89.5631 22.1474 89.6111C25.5149 89.6621 28.8921 89.8789 32.2154 90.5725C32.5302 90.6379 33.423 90.8202 34.8939 91.1195V82.8674C29.3272 81.1145 23.4015 81.1861 17.6894 81.2008C14.2729 81.2096 10.7031 81.0478 7.44882 82.5251Z" fill="#CDCDCD"/>
<path fill-rule="evenodd" clip-rule="evenodd" d="M107.225 102.134C107.102 103.267 106.701 104.263 106.021 105.125C105.34 105.986 104.257 106.672 102.774 107.182C101.29 107.692 60.6824 107.947 57.926 107.947C55.1686 107.947 53.0472 107.692 51.5641 107.182C50.0799 106.672 48.9987 105.986 48.3186 105.125C47.6373 104.263 47.2353 103.267 47.1136 102.134C46.9918 101.003 46.9309 99.8306 46.9309 98.6183C46.9309 97.406 46.9918 96.2426 47.1136 95.1253C47.2353 94.0099 47.6373 93.0211 48.3186 92.1598C48.9987 91.2985 50.0799 90.6128 51.5641 90.1026C53.0472 89.5923 55.1686 89.3372 57.926 89.3372C60.6824 89.3372 101.29 89.5923 102.774 90.1026C104.257 90.6128 105.34 91.2985 106.021 92.1598C106.701 93.0211 107.102 94.0099 107.225 95.1253C107.347 96.2426 107.409 97.406 107.409 98.6183C107.409 99.8306 107.347 101.003 107.225 102.134ZM112.562 85.9383C111.089 84.4802 109.106 83.3254 106.612 82.4732C104.118 81.6219 100.982 81.1953 97.2051 81.1953H57.1344C53.3577 81.1953 50.2229 81.6219 47.7277 82.4732C45.2336 83.3254 43.25 84.4802 41.7779 85.9383C40.3047 87.3965 39.2743 89.1079 38.6857 91.0735C38.096 93.0391 37.8022 95.1367 37.8022 97.3644V99.9201C37.8022 102.148 38.096 104.244 38.6857 106.211C39.2743 108.177 40.3047 109.889 41.7779 111.346C43.25 112.804 45.2336 113.959 47.7277 114.811C50.2229 115.663 53.3577 116.089 57.1344 116.089H97.2051C100.982 116.089 104.118 115.663 106.612 114.811C109.106 113.959 111.089 112.804 112.562 111.346C114.034 109.889 115.064 108.177 115.654 106.211C116.242 104.244 116.537 102.148 116.537 99.9201V97.3644C116.537 95.1367 116.242 93.0391 115.654 91.0735C115.064 89.1079 114.034 87.3965 112.562 85.9383Z" fill="#CDCDCD"/>
<path fill-rule="evenodd" clip-rule="evenodd" d="M9.45312 8.60061C11.094 8.43134 12.7601 8.31215 14.4514 8.24404C16.1417 8.17694 17.5616 8.14288 18.7111 8.14288C20.319 8.14288 21.5674 8.23603 22.4542 8.42233C23.3401 8.60962 23.9875 8.87204 24.3994 9.21158C24.8094 9.55112 25.0469 9.93272 25.1128 10.3564C25.1787 10.7811 25.2116 11.2138 25.2116 11.6535C25.2116 12.4677 25.1622 13.1638 25.0634 13.7408C24.9655 14.3177 24.6611 14.7924 24.1523 15.165C23.6435 15.5386 22.8477 15.8191 21.7641 16.0054C20.6805 16.1916 19.154 16.2848 17.1846 16.2848C16.3307 16.2848 15.2151 16.2598 13.8359 16.2087C12.4567 16.1576 10.9961 16.0304 9.45312 15.8271L9.45312 8.60061ZM9.55143 23.7692C11.1698 24.0399 12.8211 24.1912 14.5071 24.225C16.1932 24.2589 17.9459 24.2748 19.7664 24.2748L26.5435 34.8949H35.3421V32.8724L29.0716 22.96C31.2285 22.0164 32.7294 20.6767 33.5725 18.9399C34.4145 17.2041 34.8365 15.2731 34.8365 13.1491V11.1267C34.8365 9.60979 34.6175 8.17653 34.1796 6.82787C33.7407 5.48021 32.9653 4.29976 31.8535 3.28851C30.7408 2.27727 29.2568 1.47703 27.4025 0.885815C25.5482 0.296586 23.2052 0.000976562 20.3735 0.000976562L18.9572 0.000976562C15.8896 0.000976562 12.7623 0.0855787 9.57631 0.253788C6.39129 0.422992 3.34761 0.675803 0.448242 1.01222L0.448242 34.8949H9.55143V23.7692Z" fill="#CDCDCD"/>
<path fill-rule="evenodd" clip-rule="evenodd" d="M95.5105 26.5612H48.4622V21.8736H90.5821V13.541H48.4622V8.33267H95.5105V0L39.5908 0V34.8939H95.5105V26.5612Z" fill="#CDCDCD"/>
<path fill-rule="evenodd" clip-rule="evenodd" d="M117.656 8.38495L122.653 20.3115H112.657L117.656 8.38495ZM109.374 28.1234H125.888L128.73 34.8939H136.668V32.811L122.066 0L113.245 0L98.6431 32.811V34.8939H106.581L109.374 28.1234Z" fill="#CDCDCD"/>
<path fill-rule="evenodd" clip-rule="evenodd" d="M150.232 26.5612V0L141.366 0V34.8939H168.431V26.5612H150.232Z" fill="#CDCDCD"/>
<path fill-rule="evenodd" clip-rule="evenodd" d="M9.28207 52.7863L26.5083 75.8276H35.3421V40.2627H26.5083V62.7012L9.28207 40.2627H0.448242L0.448242 75.8276H9.28207L9.28207 52.7863Z" fill="#CDCDCD"/>
<path d="M83.7333 52.3229V59.4471C83.7333 63.857 83.7333 67.8106 74.6393 67.8106C74.5375 67.8106 57.8012 67.9408 57.7017 67.9398C48.9095 67.8528 48.9095 63.9383 48.9095 59.5778L48.9513 40.2627H39.8572L39.8154 60.8957C39.8154 69.2085 43.6046 76.0513 57.0941 76.0513L75.5487 75.9207C89.0381 75.9207 92.8273 69.0778 92.8273 60.765V52.3229H83.7333Z" fill="#CDCDCD"/>
<path fill-rule="evenodd" clip-rule="evenodd" d="M83.6558 48.6119H96.5982V75.8276H105.558V48.6119H118.55V40.2627H83.6558V48.6119Z" fill="#CDCDCD"/>
<path fill-rule="evenodd" clip-rule="evenodd" d="M130.56 48.8257C132.245 48.6573 133.956 48.5393 135.693 48.4706C137.429 48.4038 138.887 48.37 140.067 48.37C141.718 48.37 143.001 48.4628 143.911 48.6486C144.821 48.8344 145.487 49.0966 145.909 49.4333C146.33 49.772 146.573 50.1512 146.641 50.5741C146.709 50.9969 146.743 51.4275 146.743 51.8658C146.743 52.6766 146.692 53.3694 146.591 53.9432C146.49 54.5179 146.178 54.991 145.656 55.3616C145.132 55.7341 144.315 56.0128 143.203 56.1976C142.09 56.3843 140.522 56.4762 138.5 56.4762C137.623 56.4762 136.477 56.4511 135.061 56.4008C133.644 56.3505 132.145 56.2237 130.56 56.0205V48.8257ZM130.56 64.0775C132.179 64.3484 133.83 64.5003 135.516 64.5332C137.201 64.5671 138.955 64.5835 140.775 64.5835L147.552 75.8276H156.351V73.1978L150.08 63.2666C152.238 62.3213 153.738 60.9783 154.581 59.2387C155.423 57.499 155.845 55.5648 155.845 53.4361V51.4101C155.845 49.89 155.625 48.4541 155.188 47.1024C154.749 45.7527 153.974 44.5693 152.861 43.5563C151.749 42.5423 150.266 41.7411 148.412 41.149C146.557 40.5588 144.214 40.2627 141.382 40.2627H139.966C136.898 40.2627 133.771 40.3469 130.585 40.5152C127.399 40.6855 124.356 40.9381 121.458 41.2757V75.8276H130.56V64.0775Z" fill="#CDCDCD"/>
<path fill-rule="evenodd" clip-rule="evenodd" d="M160.825 75.8276H168.654V40.2627H160.825V75.8276Z" fill="#CDCDCD"/>
</g>
<defs>
<clipPath id="clip0_6290_34069">
<rect width="168.654" height="116.089" fill="white"/>
</clipPath>
</defs>
</svg>
