<svg width="1542" height="85" viewBox="0 0 1542 85" fill="none" xmlns="http://www.w3.org/2000/svg">
<g clip-path="url(#clip0_513_36)">
<path d="M1627.61 69.9964C1627.61 69.5826 1627.57 69.1737 1627.56 68.762C1627.58 68.2861 1627.61 67.8131 1627.61 67.3343C1627.61 33.5931 1582.59 6.24046 1527.05 6.24046C1505.3 6.24046 1485.16 10.438 1468.71 17.5729C1458.07 22.1885 1445.18 24.3533 1432.42 24.0686C1422.09 23.2317 1412.11 20.7737 1403.78 16.7282C1386.59 8.37881 1364.79 3.38647 1341.07 3.38647C1319.17 3.38647 1298.91 7.63963 1282.4 14.8595C1262.34 23.6327 1234.2 23.6327 1214.14 14.8595C1197.62 7.63963 1177.36 3.38647 1155.47 3.38647C1133.65 3.38647 1113.45 7.60895 1096.97 14.7817C1076.95 23.4999 1048.89 23.4999 1028.86 14.7817C1012.38 7.60895 992.188 3.38647 970.369 3.38647C947.048 3.38647 925.583 8.21043 908.527 16.3043C897.496 21.5393 883.771 24.1592 870.116 23.9987C860.927 23.2096 852.014 21.1283 844.292 17.7449C827.771 10.5057 807.487 6.24046 785.559 6.24046C730.022 6.24046 685 33.5931 685 67.3343C685 67.8124 685.033 68.2861 685.051 68.762C685.038 69.1744 685 69.5826 685 69.9964C685 84.5688 693.399 97.9498 707.415 108.45C715.101 114.208 719.006 121.061 719.151 127.936C718.43 134.247 714.538 140.466 707.453 145.767C693.414 156.27 685 169.658 685 184.244C685 184.655 685.03 185.061 685.043 185.469C685.03 185.87 685 186.267 685 186.669C685 200.936 693.053 214.056 706.547 224.449C713.459 229.773 717.12 236.06 717.535 242.405C717.122 248.752 713.461 255.04 706.547 260.365C693.054 270.759 685 283.878 685 298.146C685 298.547 685.03 298.945 685.043 299.345C685.03 299.754 685 300.159 685 300.57C685 315.143 693.398 328.524 707.415 339.024C714.795 344.552 718.695 351.092 719.123 357.69C718.699 364.29 714.798 370.833 707.415 376.363C693.398 386.864 685 400.245 685 414.817C685 415.227 685.03 415.633 685.043 416.042C685.03 416.442 685 416.84 685 417.242C685 431.509 693.053 444.629 706.547 455.022C713.459 460.346 717.121 466.633 717.535 472.979C717.122 479.324 713.46 485.613 706.547 490.938C693.054 501.332 685 514.451 685 528.718C685 529.12 685.03 529.518 685.043 529.918C685.03 530.327 685 530.733 685 531.143C685 545.728 693.414 559.117 707.453 569.62C714.537 574.919 718.429 581.137 719.151 587.448C719.007 594.323 715.102 601.178 707.415 606.936C693.398 617.436 685 630.818 685 645.39C685 645.804 685.038 646.213 685.051 646.624C685.033 647.1 685 647.573 685 648.052C685 681.793 730.022 709.146 785.558 709.146C807.312 709.146 827.449 704.949 843.9 697.814C854.543 693.199 867.435 691.034 880.188 691.319C890.521 692.156 900.501 694.614 908.831 698.659C926.021 707.008 947.819 712 971.542 712C993.439 712 1013.7 707.747 1030.21 700.527C1050.27 691.754 1078.41 691.754 1098.48 700.527C1114.99 707.747 1135.25 712 1157.14 712C1178.96 712 1199.16 707.778 1215.64 700.604C1235.66 691.886 1263.72 691.886 1283.75 700.604C1300.23 707.777 1320.42 712 1342.24 712C1365.56 712 1387.03 707.177 1404.08 699.082C1415.11 693.847 1428.84 691.227 1442.49 691.388C1451.68 692.177 1460.6 694.258 1468.32 697.642C1484.84 704.881 1505.12 709.146 1527.05 709.146C1582.59 709.146 1627.61 681.793 1627.61 648.052C1627.61 647.574 1627.58 647.1 1627.56 646.624C1627.57 646.212 1627.61 645.804 1627.61 645.39C1627.61 630.818 1619.21 617.437 1605.2 606.936C1597.51 601.179 1593.6 594.325 1593.46 587.451C1594.18 581.139 1598.07 574.92 1605.16 569.62C1619.2 559.118 1627.61 545.728 1627.61 531.143C1627.61 530.733 1627.58 530.327 1627.57 529.918C1627.58 529.518 1627.61 529.12 1627.61 528.718C1627.61 514.452 1619.56 501.332 1606.06 490.938C1599.15 485.614 1595.49 479.327 1595.08 472.982C1595.49 466.636 1599.15 460.347 1606.06 455.022C1619.56 444.629 1627.61 431.509 1627.61 417.242C1627.61 416.84 1627.58 416.443 1627.57 416.042C1627.58 415.633 1627.61 415.227 1627.61 414.817C1627.61 400.244 1619.21 386.863 1605.2 376.363C1597.82 370.835 1593.91 364.296 1593.49 357.698C1593.91 351.098 1597.81 344.555 1605.2 339.025C1619.21 328.524 1627.61 315.143 1627.61 300.571C1627.61 300.16 1627.58 299.754 1627.57 299.346C1627.58 298.945 1627.61 298.548 1627.61 298.146C1627.61 283.879 1619.56 270.759 1606.06 260.366C1599.15 255.042 1595.49 248.754 1595.08 242.409C1595.49 236.063 1599.15 229.775 1606.06 224.45C1619.56 214.056 1627.61 200.937 1627.61 186.67C1627.61 186.268 1627.58 185.87 1627.57 185.47C1627.58 185.061 1627.61 184.655 1627.61 184.245C1627.61 169.66 1619.2 156.27 1605.16 145.768C1598.07 140.469 1594.18 134.251 1593.46 127.941C1593.6 121.066 1597.51 114.21 1605.2 108.452C1619.21 97.9498 1627.61 84.5688 1627.61 69.9964Z" fill="#333433"/>
<path d="M875.611 66.7691C875.611 66.3543 875.573 65.9445 875.56 65.5318C875.578 65.0547 875.611 64.5806 875.611 64.1007C875.611 30.2788 830.589 2.86081 775.053 2.86081C753.299 2.86081 733.162 7.06834 716.711 14.2204C706.068 18.847 693.176 21.0169 680.423 20.7316C670.09 19.8926 660.11 17.4288 651.78 13.3736C634.59 5.00427 612.792 0 589.069 0C567.172 0 546.912 4.26332 530.401 11.5004C510.339 20.2946 482.197 20.2946 462.135 11.5004C445.624 4.26332 425.364 0 403.467 0C381.648 0 361.453 4.23256 344.974 11.4225C324.946 20.1615 296.89 20.1615 276.862 11.4225C260.383 4.23256 240.188 0 218.369 0C195.048 0 173.583 4.83548 156.527 12.9487C145.496 18.1962 131.771 20.8224 118.116 20.6615C108.927 19.8704 100.014 17.7842 92.292 14.3927C75.771 7.13628 55.487 2.86081 33.559 2.86081C-21.978 2.86081 -67 30.2788 -67 64.1007C-67 64.5798 -66.967 65.0547 -66.949 65.5318C-66.962 65.9452 -67 66.3543 -67 66.7691C-67 81.3764 -58.601 94.7893 -44.585 105.315C-36.899 111.086 -32.994 117.956 -32.849 124.847C-33.57 131.174 -37.462 137.407 -44.547 142.721C-58.586 153.248 -67 166.669 -67 181.29C-67 181.701 -66.97 182.108 -66.957 182.518C-66.97 182.919 -67 183.318 -67 183.72C-67 198.021 -58.947 211.173 -45.453 221.591C-38.541 226.928 -34.88 233.229 -34.465 239.59C-34.878 245.951 -38.539 252.255 -45.453 257.593C-58.946 268.011 -67 281.162 -67 295.463C-67 295.866 -66.97 296.264 -66.957 296.666C-66.97 297.075 -67 297.482 -67 297.894C-67 312.502 -58.602 325.915 -44.585 336.439C-37.205 341.981 -33.305 348.536 -32.877 355.15C-33.301 361.766 -37.202 368.325 -44.585 373.868C-58.602 384.394 -67 397.807 -67 412.414C-67 412.825 -66.97 413.232 -66.957 413.642C-66.97 414.042 -67 414.441 -67 414.844C-67 429.145 -58.947 442.296 -45.453 452.715C-38.541 458.052 -34.879 464.354 -34.465 470.714C-34.878 477.075 -38.54 483.379 -45.453 488.717C-58.946 499.135 -67 512.286 -67 526.587C-67 526.99 -66.97 527.388 -66.957 527.79C-66.97 528.199 -67 528.606 -67 529.017C-67 543.638 -58.586 557.058 -44.547 567.586C-37.463 572.899 -33.571 579.131 -32.849 585.457C-32.993 592.349 -36.898 599.22 -44.585 604.992C-58.602 615.517 -67 628.93 -67 643.538C-67 643.953 -66.962 644.362 -66.949 644.775C-66.967 645.252 -67 645.726 -67 646.206C-67 680.028 -21.978 707.446 33.558 707.446C55.312 707.446 75.449 703.238 91.9 696.087C102.543 691.461 115.435 689.291 128.188 689.576C138.521 690.415 148.501 692.879 156.831 696.934C174.021 705.303 195.819 710.307 219.542 710.307C241.439 710.307 261.699 706.043 278.21 698.806C298.272 690.012 326.414 690.012 346.476 698.806C362.987 706.043 383.247 710.307 405.144 710.307C426.963 710.307 447.158 706.074 463.637 698.884C483.665 690.145 511.721 690.145 531.749 698.884C548.228 706.074 568.423 710.307 590.242 710.307C613.563 710.307 635.028 705.472 652.084 697.358C663.115 692.111 676.84 689.484 690.495 689.645C699.684 690.436 708.597 692.523 716.318 695.914C732.839 703.17 753.123 707.446 775.051 707.446C830.588 707.446 875.61 680.028 875.61 646.206C875.61 645.727 875.577 645.252 875.559 644.775C875.572 644.362 875.61 643.953 875.61 643.538C875.61 628.93 867.211 615.518 853.195 604.992C845.509 599.221 841.604 592.351 841.459 585.46C842.18 579.133 846.072 572.899 853.157 567.586C867.196 557.059 875.61 543.638 875.61 529.017C875.61 528.606 875.58 528.199 875.567 527.79C875.58 527.388 875.61 526.99 875.61 526.587C875.61 512.287 867.557 499.135 854.063 488.717C847.151 483.38 843.49 477.078 843.075 470.718C843.488 464.356 847.149 458.052 854.063 452.715C867.557 442.296 875.61 429.145 875.61 414.844C875.61 414.441 875.58 414.043 875.567 413.642C875.58 413.232 875.61 412.825 875.61 412.414C875.61 397.806 867.211 384.393 853.195 373.868C845.815 368.327 841.915 361.772 841.487 355.158C841.911 348.542 845.812 341.984 853.195 336.44C867.211 325.915 875.61 312.502 875.61 297.894C875.61 297.483 875.58 297.076 875.567 296.666C875.58 296.265 875.61 295.867 875.61 295.464C875.61 281.163 867.557 268.012 854.063 257.593C847.151 252.257 843.489 245.954 843.075 239.594C843.488 233.233 847.15 226.929 854.063 221.592C867.557 211.173 875.61 198.022 875.61 183.721C875.61 183.318 875.58 182.92 875.567 182.519C875.58 182.109 875.61 181.702 875.61 181.291C875.61 166.671 867.196 153.249 853.157 142.722C846.073 137.41 842.181 131.177 841.459 124.852C841.603 117.96 845.508 111.089 853.195 105.316C867.212 94.7892 875.611 81.3764 875.611 66.7691Z" fill="#333433"/>
</g>
<defs>
<clipPath id="clip0_513_36">
<rect width="1542" height="85" fill="white"/>
</clipPath>
</defs>
</svg>
