<svg width="204" height="208" viewBox="0 0 204 208" fill="none" xmlns="http://www.w3.org/2000/svg">
<path d="M34.261 47.0687C26.261 49.7987 25.481 51.0687 25.901 60.2987C23.141 51.4287 22.011 50.5487 13.541 50.6987C21.541 47.9688 22.321 46.6987 21.901 37.4688C24.661 46.3387 25.801 47.2187 34.261 47.0687Z" fill="#FFDD00" stroke="black" stroke-width="0.75" stroke-miterlimit="10"/>
<path d="M46.1011 9.51875C41.2611 11.1788 40.8011 11.9088 41.0511 17.5188C39.3811 12.1588 38.6911 11.6287 33.5811 11.7188C38.4211 10.0687 38.8811 9.32875 38.6311 3.71875C40.3311 9.08875 41.0111 9.61875 46.1011 9.51875Z" fill="#FFDD00" stroke="black" stroke-width="0.75" stroke-miterlimit="10"/>
<path d="M160.701 12.3787C155.131 12.9487 154.461 13.6187 153.351 19.6587C152.891 13.5287 152.291 12.7987 146.811 11.6587C152.381 11.0887 153.061 10.4187 154.171 4.37866C154.631 10.4787 155.231 11.2187 160.701 12.3787Z" fill="#FFDD00" stroke="black" stroke-width="0.75" stroke-miterlimit="10"/>
<path d="M197.681 52.4286C189.071 51.4286 187.831 52.1786 184.101 60.9286C185.481 51.5186 184.831 50.2086 176.951 46.5886C185.561 47.5886 186.801 46.8386 190.531 38.0886C189.151 47.4986 189.801 48.8386 197.681 52.4286Z" fill="#FFDD00" stroke="black" stroke-width="0.75" stroke-miterlimit="10"/>
<path d="M122.511 180.469C122.511 180.469 189.511 187.809 188.801 174.819C188.091 161.829 139.801 164.879 139.801 164.879L141.521 152.969C141.601 152.449 150.931 152.439 151.521 152.429C158.964 152.258 166.405 152.81 173.741 154.079C180.461 155.309 187.261 157.309 193.041 161.079C201.101 166.299 207.781 176.399 199.811 184.629C195.021 189.569 187.811 191.689 181.221 192.969C165.471 196.049 148.841 195.079 132.981 193.389C129.281 192.989 125.591 192.522 121.911 191.989C121.881 188.749 122.571 183.669 122.511 180.469Z" fill="black" stroke="black" stroke-width="0.5" stroke-miterlimit="10"/>
<path d="M131.511 178.219C131.018 177.311 130.333 176.522 129.504 175.905C128.675 175.289 127.722 174.86 126.711 174.649C125.229 174.395 123.705 174.645 122.381 175.359L115.001 196.579L111.661 206.179C111.661 206.179 121.571 210.819 126.431 200.639C126.955 199.527 127.383 198.373 127.711 197.189C128.486 197.974 129.505 198.471 130.601 198.599C131.679 198.729 132.768 198.471 133.671 197.869C135.181 196.689 136.121 192.539 134.811 189.989L131.511 178.219Z" fill="#E28A83" stroke="black" stroke-width="0.75" stroke-miterlimit="10"/>
<path d="M111.651 206.189C111.12 206.479 110.501 206.565 109.911 206.429C109.572 206.337 109.255 206.176 108.981 205.956C108.708 205.736 108.483 205.461 108.321 205.149L118.041 173.839C118.811 173.489 119.683 173.435 120.49 173.685C121.297 173.936 121.985 174.475 122.421 175.199L111.651 206.189Z" fill="white" stroke="black" stroke-width="0.5" stroke-miterlimit="10"/>
<path d="M115.001 196.579L111.661 206.179C111.661 206.179 121.571 210.819 126.431 200.639C124.851 198.949 121.571 196.839 115.001 196.579Z" fill="white" stroke="black" stroke-width="0.5" stroke-miterlimit="10"/>
<path d="M127.711 197.189L127.921 190.089" stroke="black" stroke-width="0.5" stroke-miterlimit="10"/>
<path d="M127.161 198.839L124.161 191.079" stroke="black" stroke-width="0.5" stroke-miterlimit="10"/>
<path d="M128.181 188.719C128.042 188.676 127.893 188.676 127.753 188.718C127.613 188.76 127.488 188.842 127.395 188.955C127.302 189.068 127.245 189.205 127.23 189.35C127.214 189.496 127.243 189.642 127.311 189.771C127.379 189.901 127.484 190.007 127.612 190.077C127.74 190.146 127.887 190.177 128.032 190.164C128.178 190.15 128.316 190.095 128.43 190.003C128.543 189.911 128.628 189.788 128.671 189.649C128.728 189.46 128.708 189.257 128.617 189.084C128.525 188.91 128.369 188.779 128.181 188.719Z" fill="white" stroke="black" stroke-width="0.5" stroke-miterlimit="10"/>
<path d="M124.161 189.739C124.02 189.694 123.868 189.693 123.726 189.734C123.583 189.776 123.456 189.858 123.361 189.972C123.266 190.086 123.206 190.225 123.19 190.373C123.174 190.52 123.202 190.669 123.27 190.801C123.339 190.932 123.445 191.041 123.575 191.112C123.705 191.183 123.854 191.214 124.002 191.201C124.149 191.188 124.29 191.132 124.406 191.039C124.521 190.946 124.607 190.82 124.651 190.679C124.708 190.489 124.689 190.285 124.597 190.109C124.506 189.934 124.349 189.801 124.161 189.739Z" fill="white" stroke="black" stroke-width="0.5" stroke-miterlimit="10"/>
<path d="M95.4011 180.469C95.4011 180.469 28.3611 187.839 29.1011 174.839C29.8411 161.839 78.1011 164.839 78.1011 164.839L76.3811 152.929C76.3011 152.409 66.9811 152.399 66.3811 152.389C58.9171 152.226 51.4551 152.792 44.1011 154.079C37.3811 155.309 30.5711 157.309 24.7911 161.079C16.7711 166.269 10.1011 176.369 18.1011 184.599C22.8911 189.539 30.1011 191.659 36.6911 192.939C52.4511 196.019 69.0711 195.049 84.9411 193.359C88.6411 192.959 92.3311 192.492 96.0111 191.959C96.0311 188.749 95.3411 183.669 95.4011 180.469Z" fill="black" stroke="black" stroke-width="0.5" stroke-miterlimit="10"/>
<path d="M86.4115 178.219C86.9047 177.311 87.5895 176.522 88.4184 175.905C89.2472 175.289 90.2003 174.86 91.2115 174.649C92.6904 174.394 94.2119 174.644 95.5315 175.359C97.9915 182.425 100.455 189.499 102.921 196.579L106.261 206.179C106.261 206.179 96.3515 210.839 91.4815 200.639C90.9572 199.528 90.5323 198.374 90.2115 197.189C89.4346 197.971 88.4162 198.468 87.3215 198.599C86.2438 198.73 85.1546 198.471 84.2515 197.869C82.7415 196.689 81.8015 192.539 83.1115 189.989L86.4115 178.219Z" fill="#E28A83" stroke="black" stroke-width="0.75" stroke-miterlimit="10"/>
<path d="M106.261 206.189C106.543 206.351 106.855 206.454 107.179 206.492C107.502 206.529 107.83 206.501 108.141 206.407C108.453 206.313 108.743 206.157 108.992 205.947C109.241 205.738 109.445 205.48 109.591 205.189C106.351 194.755 103.114 184.329 99.8807 173.909C99.1349 173.578 98.298 173.515 97.5107 173.729C96.6801 173.984 95.9697 174.531 95.5107 175.269L106.261 206.189Z" fill="white" stroke="black" stroke-width="0.5" stroke-miterlimit="10"/>
<path d="M102.921 196.579L106.261 206.179C106.261 206.179 96.3514 210.839 91.4814 200.639C93.1014 198.949 96.3514 196.839 102.921 196.579Z" fill="white" stroke="black" stroke-width="0.5" stroke-miterlimit="10"/>
<path d="M90.2112 197.189L89.9912 190.089" stroke="black" stroke-width="0.5" stroke-miterlimit="10"/>
<path d="M90.751 198.839L93.751 191.079" stroke="black" stroke-width="0.5" stroke-miterlimit="10"/>
<path d="M89.7306 188.719C89.9203 188.662 90.1246 188.681 90.3002 188.773C90.4757 188.864 90.6086 189.021 90.6706 189.209C90.7272 189.397 90.7075 189.6 90.6158 189.774C90.5242 189.948 90.3679 190.079 90.1806 190.139C89.991 190.196 89.7867 190.176 89.6111 190.085C89.4356 189.993 89.3026 189.837 89.2406 189.649C89.1841 189.46 89.2038 189.258 89.2955 189.084C89.3871 188.91 89.5434 188.779 89.7306 188.719Z" fill="white" stroke="black" stroke-width="0.5" stroke-miterlimit="10"/>
<path d="M93.7613 189.739C93.9496 189.682 94.1525 189.702 94.3265 189.793C94.5004 189.885 94.6314 190.041 94.6913 190.229C94.7481 190.418 94.7287 190.623 94.6372 190.798C94.5457 190.974 94.3893 191.107 94.2013 191.169C94.013 191.225 93.81 191.206 93.6361 191.114C93.4621 191.022 93.3311 190.866 93.2713 190.679C93.2144 190.489 93.2338 190.285 93.3253 190.109C93.4168 189.934 93.5733 189.801 93.7613 189.739Z" fill="white" stroke="black" stroke-width="0.5" stroke-miterlimit="10"/>
<path d="M117.341 85.7587C135.411 85.4587 143.341 80.0487 147.221 74.9887C152.011 68.7387 150.221 63.5687 157.551 56.3187C161.861 52.0487 166.401 49.9687 168.111 44.2287C168.621 42.0109 169.404 39.8646 170.441 37.8387C171.636 35.6411 173.175 33.6492 175.001 31.9387C162.661 32.9387 153.111 37.5787 149.571 44.4587C144.081 55.1587 141.811 54.7087 131.741 59.2887C130.681 59.7787 121.141 66.5087 120.631 74.6287C120.625 77.0291 120.22 79.4117 119.431 81.6787C118.898 83.1166 118.196 84.4862 117.341 85.7587Z" fill="#D4F679" stroke="black" stroke-width="0.5" stroke-miterlimit="10"/>
<path d="M94.751 94.5588C113.031 91.4588 130.331 77.3788 139.991 68.1488C144.389 63.9436 148.362 59.3145 151.851 54.3288L157.851 45.7588" stroke="black" stroke-width="0.5" stroke-miterlimit="10"/>
<path d="M90.6909 84.4287C90.6909 84.4287 93.4909 66.6087 78.8609 56.1287C64.2309 45.6487 67.7009 44.9587 64.4609 39.7187C61.2209 34.4787 58.0809 30.1687 44.4609 22.4487C44.4609 22.4487 45.3209 44.0387 53.6609 51.0387C62.0009 58.0387 66.4309 63.1387 68.1009 69.9987C69.4409 75.6487 75.3609 78.9987 81.1609 80.7187C84.4383 81.6791 87.6268 82.9204 90.6909 84.4287Z" fill="#D4F679" stroke="black" stroke-width="0.5" stroke-miterlimit="10"/>
<path d="M55.9414 40.2087L85.4714 77.7787C88.9429 82.192 92.9504 86.1558 97.4014 89.5787L108.541 98.1387" stroke="black" stroke-width="0.5" stroke-miterlimit="10"/>
<path d="M117.442 82.3186C132.931 73.0286 137.101 64.3786 137.941 58.0586C138.941 50.2586 134.832 46.6686 137.552 36.7186C139.152 30.8686 142.042 26.7986 140.662 20.9686C139.979 18.7849 139.576 16.5236 139.462 14.2386C139.394 11.7375 139.732 9.24196 140.462 6.84863C130.252 13.8486 124.312 22.6686 124.692 30.3886C125.282 42.3886 123.092 43.1586 116.692 52.1586C116.012 53.1586 111.112 63.6986 114.692 70.9986C115.886 73.0783 116.724 75.3428 117.172 77.6986C117.44 79.223 117.531 80.7734 117.442 82.3186Z" fill="#D4F679" stroke="black" stroke-width="0.5" stroke-miterlimit="10"/>
<path d="M102.261 101.229C116.551 89.4087 124.501 68.5687 128.261 55.7487C129.964 49.9029 131.089 43.9042 131.621 37.8387L132.541 27.4087" stroke="black" stroke-width="0.5" stroke-miterlimit="10"/>
<path d="M96.2706 82.3186C80.7806 73.0286 76.6106 64.3786 75.7806 58.0586C74.7806 50.2586 78.8806 46.6686 76.1606 36.7186C74.5606 30.8386 71.6706 26.8386 73.1006 20.9686C73.7877 18.7861 74.191 16.5242 74.3006 14.2386C74.367 11.7375 74.0294 9.24211 73.3006 6.84863C83.5006 13.8486 89.4406 22.6686 89.0606 30.3886C88.4706 42.3886 90.6606 43.1586 97.0606 52.1586C97.7406 53.1586 102.641 63.6986 99.0606 70.9986C97.8666 73.0783 97.0284 75.3428 96.5806 77.6986C96.2987 79.2214 96.1947 80.7718 96.2706 82.3186Z" fill="#D4F679" stroke="black" stroke-width="0.5" stroke-miterlimit="10"/>
<path d="M111.451 101.229C97.1607 89.4087 89.2107 68.5687 85.4507 55.7487C83.7511 49.9026 82.629 43.9039 82.1007 37.8387L81.1807 27.4087" stroke="black" stroke-width="0.5" stroke-miterlimit="10"/>
<path d="M108.101 95.3687C93.5707 80.0787 91.5607 69.0387 92.5807 61.6587C93.8407 52.5587 99.5807 49.7987 99.5807 37.7587C99.5807 30.6687 97.5807 25.1887 100.961 19.0587C102.42 16.8082 103.589 14.3823 104.441 11.8387C105.295 9.04434 105.69 6.12977 105.611 3.20874C114.921 14.2687 118.881 26.0587 116.101 34.6387C111.711 47.9887 113.951 49.5087 118.391 61.6387C118.861 62.9187 121.091 76.3687 114.761 83.4587C112.774 85.4305 111.128 87.7182 109.891 90.2287C109.09 91.8642 108.489 93.5899 108.101 95.3687Z" fill="#D4F679" stroke="black" stroke-width="0.5" stroke-miterlimit="10"/>
<path d="M119.351 121.389C106.931 103.629 104.441 77.6786 104.191 62.0686C104.074 54.9512 104.664 47.8396 105.951 40.8386L108.101 28.8386" stroke="black" stroke-width="0.5" stroke-miterlimit="10"/>
<path d="M46.1914 72.4787L65.7514 174.989L149.591 174.799L167.731 72.1887L46.1914 72.4787Z" fill="#EF2D18" stroke="black" stroke-width="0.75" stroke-miterlimit="10"/>
<path d="M177.581 61.8386L37.501 62.2086L37.551 80.0886L177.631 79.7586L177.581 61.8386Z" fill="#EF2D18" stroke="black" stroke-width="0.75" stroke-miterlimit="10"/>
<path d="M155.681 94.1287L142.901 163.509" stroke="black" stroke-width="0.5" stroke-miterlimit="10" stroke-linecap="round"/>
<path d="M96.7512 96.7386C96.4012 107.579 90.9312 116.369 84.1912 117.529C83.5909 117.637 82.9808 117.68 82.3712 117.659C74.8212 117.419 69.0012 107.659 69.3712 95.8586C69.7412 84.0586 76.1912 74.7186 83.7412 74.9586C84.3478 74.9777 84.9508 75.0581 85.5412 75.1986C92.2112 76.8386 97.1012 85.9086 96.7512 96.7386Z" fill="white" stroke="black" stroke-width="0.5" stroke-miterlimit="10"/>
<path d="M95.1608 104.289C92.9908 111.429 88.9108 116.539 84.1608 117.449C83.5654 117.569 82.9579 117.619 82.3508 117.599C77.5708 117.429 73.5008 112.999 71.2508 106.409C71.2458 106.325 71.2458 106.242 71.2508 106.159C71.3608 98.2287 76.8108 91.8687 83.4408 91.9587C89.4608 92.0387 94.3608 97.3887 95.1608 104.289Z" fill="black" stroke="black" stroke-width="0.5" stroke-miterlimit="10"/>
<path d="M62.291 84.3787L70.491 87.8387" stroke="black" stroke-width="0.5" stroke-miterlimit="10"/>
<path d="M65.7207 77.9287L72.3407 83.5587" stroke="black" stroke-width="0.5" stroke-miterlimit="10"/>
<path d="M61.4414 91.0288L69.7314 93.0288" stroke="black" stroke-width="0.5" stroke-miterlimit="10"/>
<path d="M145.101 96.5387C144.751 107.369 139.281 116.159 132.531 117.319C131.934 117.427 131.327 117.471 130.721 117.449C123.161 117.209 117.341 107.449 117.721 95.6487C118.101 83.8487 124.541 74.5087 132.101 74.7487C132.708 74.7667 133.312 74.8505 133.901 74.9987C140.581 76.5887 145.481 85.6987 145.101 96.5387Z" fill="white" stroke="black" stroke-width="0.5" stroke-miterlimit="10"/>
<path d="M143.531 104.089C141.371 111.229 137.281 116.329 132.531 117.239C131.935 117.359 131.328 117.409 130.721 117.389C125.951 117.219 121.871 112.789 119.621 106.199C119.616 106.119 119.616 106.039 119.621 105.959C119.731 98.0187 125.191 91.6587 131.811 91.7487C137.831 91.8387 142.731 97.1887 143.531 104.089Z" fill="black" stroke="black" stroke-width="0.5" stroke-miterlimit="10"/>
<path d="M151.961 82.4087L143.761 85.8387" stroke="black" stroke-width="0.5" stroke-miterlimit="10"/>
<path d="M148.521 75.9587L141.911 81.5987" stroke="black" stroke-width="0.5" stroke-miterlimit="10"/>
<path d="M152.811 89.0588L144.521 91.0588" stroke="black" stroke-width="0.5" stroke-miterlimit="10"/>
<path d="M111.161 108.189C111.161 108.948 110.936 109.691 110.514 110.322C110.092 110.954 109.493 111.446 108.791 111.736C108.089 112.027 107.317 112.103 106.572 111.955C105.827 111.807 105.143 111.441 104.606 110.904C104.069 110.367 103.703 109.683 103.555 108.938C103.407 108.193 103.483 107.421 103.774 106.719C104.064 106.017 104.557 105.418 105.188 104.996C105.82 104.574 106.562 104.349 107.321 104.349C108.34 104.349 109.317 104.753 110.037 105.473C110.757 106.193 111.161 107.17 111.161 108.189Z" fill="#F6CC4A" stroke="black" stroke-width="0.5" stroke-miterlimit="10"/>
<path d="M106.231 119.499C100.521 119.599 96.5506 116.809 91.3006 116.829C88.3006 116.829 85.4906 117.449 85.3006 120.699C85.0206 126.699 89.4906 130.809 94.9706 133.409C102.051 136.769 110.501 137.319 117.451 133.939C125.861 129.849 129.661 123.699 128.591 120.159C127.591 117.029 125.311 116.389 122.361 116.459C117.151 116.569 111.461 119.399 106.231 119.499Z" fill="white" stroke="black" stroke-width="0.5" stroke-miterlimit="10"/>
<path d="M119.951 116.549C121.958 121.419 122.333 126.808 121.021 131.909" stroke="black" stroke-width="0.5" stroke-miterlimit="10"/>
<path d="M109.681 119.309C111.26 124.691 111.35 130.4 109.941 135.829" stroke="black" stroke-width="0.5" stroke-miterlimit="10"/>
<path d="M97.9709 117.979C98.6792 120.733 98.9824 123.577 98.8709 126.419C98.7373 129.117 98.2498 131.787 97.4209 134.359" stroke="black" stroke-width="0.5" stroke-miterlimit="10"/>
<path d="M75.5908 185.899L143.591 185.209L147.101 142.569C147.137 142.126 147.08 141.68 146.935 141.259C146.789 140.839 146.557 140.454 146.254 140.129C145.951 139.803 145.583 139.544 145.175 139.369C144.766 139.193 144.326 139.105 143.881 139.109L75.4108 139.809C74.9717 139.811 74.5377 139.905 74.1363 140.083C73.7348 140.261 73.3745 140.52 73.0779 140.844C72.7812 141.168 72.5546 141.55 72.4123 141.965C72.27 142.381 72.215 142.821 72.2509 143.259L75.5908 185.899Z" fill="#7B43CF" stroke="black" stroke-width="0.5" stroke-miterlimit="10"/>
<path d="M75.5605 190.519L143.821 189.739V185.149L75.6305 185.979L75.5605 190.519Z" fill="#7B43CF" stroke="black" stroke-width="0.5" stroke-miterlimit="10"/>
<path d="M111.351 168.119L107.461 172.729L108.291 166.729L102.291 166.559L107.481 163.479L103.851 158.659L109.491 160.799L111.001 154.949L112.851 160.699L118.361 158.229L115.021 163.229L120.381 165.989L114.381 166.519L115.561 172.439L111.351 168.119Z" fill="#FFDD00"/>
<path d="M183.961 152.729C179.791 167.179 161.361 167.049 149.391 165.249C143.881 164.419 145.871 156.159 151.221 156.699C151.304 156.689 151.388 156.689 151.471 156.699C159.331 157.879 175.011 159.069 175.921 147.969C176.511 140.759 172.311 133.549 168.721 127.639C166.223 123.555 163.241 119.788 159.841 116.419L161.991 106.419C168.978 112.549 174.777 119.911 179.101 128.139C182.951 135.439 186.351 144.429 183.961 152.729Z" fill="black"/>
<path d="M156.761 155.139C156.201 155.269 155.501 154.009 155.181 153.499C153.111 150.179 148.641 148.699 145.961 148.419C144.871 148.309 141.231 147.829 139.811 149.249C136.761 152.249 143.481 155.679 145.551 156.819L143.961 157.189C143.441 157.309 142.911 157.419 142.381 157.519C141.441 157.709 140.491 157.869 139.541 157.989C137.311 158.289 135.051 158.339 132.821 158.659C131.321 158.879 129.021 159.199 128.311 160.779C127.841 161.829 128.551 162.989 129.141 163.839V163.909C129.141 163.909 125.801 167.039 130.601 169.529C130.226 169.898 129.981 170.379 129.901 170.899C129.901 172.839 132.901 174.269 134.391 174.899C138.284 176.559 142.478 177.4 146.711 177.369C150.04 177.31 153.245 176.089 155.771 173.919C156.271 173.494 156.745 173.04 157.191 172.559C157.571 172.159 158.101 171.169 158.571 170.939C158.571 170.939 159.131 171.489 159.171 171.519C159.666 171.942 160.245 172.256 160.871 172.439C161.587 172.668 162.358 172.658 163.067 172.409C163.777 172.16 164.385 171.686 164.801 171.059C166.021 169.059 165.421 166.569 164.961 164.429C164.411 161.849 164.111 159.229 163.701 156.629C162.471 148.799 158.001 152.979 157.501 153.829C156.801 155.079 157.101 155.079 156.761 155.139Z" fill="white" stroke="black" stroke-width="0.5" stroke-miterlimit="10"/>
<path d="M144.101 163.779C144.101 163.779 135.101 165.559 129.201 163.909" stroke="black" stroke-width="0.5" stroke-miterlimit="10"/>
<path d="M130.491 169.659C130.491 169.659 138.611 171.309 143.991 170.479" stroke="black" stroke-width="0.5" stroke-miterlimit="10"/>
<path d="M156.531 155.149L156.971 158.149" stroke="black" stroke-width="0.5" stroke-miterlimit="10"/>
<path d="M158.101 168.249L158.681 170.909" stroke="black" stroke-width="0.5" stroke-miterlimit="10"/>
<path d="M56.7913 128.089C45.5013 137.399 31.4213 144.159 20.7313 133.439C10.4913 123.169 12.5313 105.069 12.4313 91.8788C12.4313 86.4888 20.7613 86.4988 20.7913 91.8788C20.8713 102.449 19.0613 115.959 24.9813 125.359C31.9813 136.449 45.1913 127.739 54.9813 118.619L56.7913 128.089Z" fill="black"/>
<path d="M31.101 75.6688C31.0784 76.3487 30.8774 77.0106 30.5183 77.5883C30.1591 78.166 29.6544 78.6391 29.0548 78.9602C28.4551 79.2813 27.7815 79.4391 27.1017 79.4178C26.4218 79.3965 25.7594 79.1968 25.181 78.8388C23.561 77.7088 19.991 75.8388 17.441 79.0188C14.041 83.2388 20.921 87.2488 24.891 85.7388C25.9637 85.5047 26.9215 84.9046 27.6002 84.0417C28.2789 83.1787 28.6363 82.1064 28.611 81.0088C28.642 80.0855 29.0248 79.209 29.681 78.5588C29.8811 78.3673 30.1188 78.2195 30.3791 78.1247C30.6393 78.0298 30.9164 77.9901 31.1928 78.008C31.4692 78.0258 31.7388 78.1009 31.9847 78.2284C32.2305 78.356 32.4472 78.5332 32.621 78.7488C34.931 82.0088 33.901 91.8388 22.021 92.3988C22.021 92.3988 24.461 92.6188 25.221 94.5988C25.3625 95.0021 25.4161 95.4309 25.3784 95.8566C25.3406 96.2823 25.2123 96.6951 25.0021 97.0672C24.792 97.4393 24.5047 97.7622 24.1596 98.0143C23.8144 98.2663 23.4194 98.4418 23.001 98.5288L11.451 101.309C10.8926 101.454 10.3085 101.471 9.7427 101.358C9.17687 101.245 8.64397 101.005 8.184 100.657C7.72404 100.309 7.34895 99.8605 7.08691 99.3465C6.82488 98.8324 6.68269 98.2657 6.67103 97.6888C6.67177 97.2016 6.79827 96.7229 7.03828 96.2989C7.27829 95.875 7.62368 95.5201 8.04103 95.2688C8.04103 95.2688 -5.48897 66.6488 3.34103 63.8388C4.22947 63.638 5.15769 63.7078 6.00608 64.0393C6.85446 64.3708 7.58412 64.9488 8.10103 65.6988C8.10103 65.6988 10.591 58.3488 15.181 63.1188C16.4728 64.4278 17.289 66.1318 17.4992 67.9588C17.7095 69.7858 17.3017 71.6306 16.341 73.1988C16.771 72.5388 17.911 72.1988 18.611 71.9188C20.4007 71.1501 22.3235 70.7391 24.271 70.7088C27.101 70.7088 30.701 72.1188 31.041 75.3488C31.101 75.4588 31.101 75.5688 31.101 75.6688Z" fill="white" stroke="black" stroke-width="0.5" stroke-miterlimit="10"/>
<path d="M8.10059 65.6987L9.00059 74.1887" stroke="black" stroke-width="0.5" stroke-miterlimit="10"/>
<path d="M22.0211 92.3987L17.1611 93.6387" stroke="black" stroke-width="0.5" stroke-miterlimit="10"/>
<path d="M11.7006 94.5588L8.10059 95.2688" stroke="black" stroke-width="0.5" stroke-miterlimit="10"/>
</svg>
