<svg width="146" height="101" viewBox="0 0 146 101" fill="none" xmlns="http://www.w3.org/2000/svg">
<g clip-path="url(#clip0_402_12264)">
<path fill-rule="evenodd" clip-rule="evenodd" d="M133.766 78.8541C133.658 78.5361 133.435 78.2794 133.135 78.1307C132.835 77.982 132.495 77.9598 132.179 78.0671L123.993 80.8541C123.828 80.91 123.651 80.8847 123.51 80.7836C123.368 80.6824 123.284 80.5246 123.282 80.3499L123.167 71.6824C123.162 71.336 123.02 71.015 122.768 70.7789C122.514 70.5429 122.186 70.4234 121.862 70.4448L117.38 70.4441C116.717 70.4839 116.201 71.0379 116.204 71.6947L116.037 80.2012C116.038 80.3798 115.954 80.5422 115.809 80.6449C115.663 80.7484 115.483 80.7713 115.316 80.7116L107.544 77.8801C106.903 77.6464 106.186 77.9782 105.946 78.6188L104.256 83.133C104.137 83.4503 104.149 83.7951 104.292 84.1024C104.434 84.4104 104.686 84.6434 105.004 84.7583L113.338 87.7553C113.498 87.8128 113.619 87.9392 113.669 88.1024C113.72 88.2649 113.693 88.4381 113.594 88.5775L108.474 95.7791C108.276 96.0573 108.201 96.3952 108.261 96.7316C108.321 97.068 108.51 97.3584 108.792 97.55L112.826 100.286C113.039 100.431 113.282 100.5 113.523 100.5C113.922 100.5 114.316 100.309 114.558 99.9554L119.358 92.917C119.457 92.7722 119.614 92.6864 119.789 92.6825C119.961 92.6772 120.125 92.7568 120.231 92.8971L125.353 99.7155C125.754 100.249 126.5 100.375 127.051 100.001L130.931 97.3745C131.217 97.1814 131.406 96.8864 131.464 96.5454C131.523 96.2036 131.442 95.8626 131.236 95.5845L126.051 88.5653C125.948 88.425 125.919 88.2488 125.97 88.0825C126.022 87.9162 126.146 87.7882 126.311 87.7323L134.501 84.9453C135.154 84.7223 135.505 84.0081 135.284 83.3522L133.766 78.8541Z" fill="#333433"/>
<path fill-rule="evenodd" clip-rule="evenodd" d="M6.44828 71.587C4.83013 72.3179 3.5477 73.3083 2.6003 74.558C1.65221 75.8086 0.981457 77.2772 0.588735 78.963C0.196013 80.6488 0 82.4477 0 84.3583V86.5502C0 88.4607 0.196013 90.2589 0.588735 91.9447C0.981457 93.6313 1.65221 95.0999 2.6003 96.3496C3.5477 97.6002 4.83013 98.5906 6.44828 99.3215C9.20567 100.562 12.1917 100.469 15.0854 100.493C18.435 100.521 21.7665 100.473 25.1071 100.137C25.6319 100.085 30.2041 99.613 30.2069 99.0663V91.8754C28.4377 92.3916 27.4 92.6754 27.0937 92.7266C24.2467 93.2032 21.3697 93.611 18.5011 93.7429C15.9147 93.8612 13.24 93.8933 10.7593 92.8657C9.77643 92.4585 9.0605 91.8822 8.60939 91.1377C8.15897 90.3933 7.89276 89.5145 7.81213 88.503C7.7308 87.4916 7.69118 86.9003 7.69118 85.692C7.69118 84.4836 7.7308 83.8916 7.81213 82.8801C7.89276 81.8686 8.15897 80.9983 8.60939 80.2665C9.0605 79.5364 9.77643 78.9678 10.7593 78.5596C13.4284 77.4527 16.3929 77.6496 19.1726 77.691C22.0877 77.7349 25.0112 77.9217 27.8882 78.5191C28.1607 78.5754 28.9336 78.7325 30.2069 78.9903V71.8819C25.3879 70.3719 20.2582 70.4336 15.3134 70.4463C12.3558 70.4539 9.26545 70.3145 6.44828 71.587Z" fill="#333433"/>
<path fill-rule="evenodd" clip-rule="evenodd" d="M92.8222 88.4793C92.7159 89.455 92.3688 90.3134 91.78 91.0553C91.1903 91.7972 90.2535 92.3879 88.9695 92.8274C87.6847 93.2669 52.5314 93.4867 50.1453 93.4867C47.7583 93.4867 45.9219 93.2669 44.6379 92.8274C43.3531 92.3879 42.4172 91.7972 41.8284 91.0553C41.2386 90.3134 40.8906 89.455 40.7852 88.4793C40.6798 87.5045 40.6271 86.4949 40.6271 85.4506C40.6271 84.4064 40.6798 83.4042 40.7852 82.4418C40.8906 81.4809 41.2386 80.6292 41.8284 79.8873C42.4172 79.1454 43.3531 78.5547 44.6379 78.1151C45.9219 77.6756 47.7583 77.4559 50.1453 77.4559C52.5314 77.4559 87.6847 77.6756 88.9695 78.1151C90.2535 78.5547 91.1903 79.1454 91.78 79.8873C92.3688 80.6292 92.7159 81.4809 92.8222 82.4418C92.9276 83.4042 92.9813 84.4064 92.9813 85.4506C92.9813 86.4949 92.9276 87.5045 92.8222 88.4793ZM97.4422 74.5281C96.1678 73.272 94.4506 72.2773 92.2915 71.5432C90.1324 70.8099 87.4177 70.4424 84.1484 70.4424H49.46C46.1907 70.4424 43.4769 70.8099 41.3169 71.5432C39.1578 72.2773 37.4406 73.272 36.1662 74.5281C34.8909 75.7841 33.999 77.2583 33.4894 78.9515C32.9789 80.6447 32.7246 82.4516 32.7246 84.3705V86.5721C32.7246 88.491 32.9789 90.297 33.4894 91.9911C33.999 93.6842 34.8909 95.1593 36.1662 96.4145C37.4406 97.6706 39.1578 98.6653 41.3169 99.3994C43.4769 100.133 46.1907 100.5 49.46 100.5H84.1484C87.4177 100.5 90.1324 100.133 92.2915 99.3994C94.4506 98.6653 96.1678 97.6706 97.4422 96.4145C98.7165 95.1593 99.6085 93.6842 100.119 91.9911C100.629 90.297 100.884 88.491 100.884 86.5721V84.3705C100.884 82.4516 100.629 80.6447 100.119 78.9515C99.6085 77.2583 98.7165 75.7841 97.4422 74.5281Z" fill="#333433"/>
<path fill-rule="evenodd" clip-rule="evenodd" d="M8.18302 7.90778C9.6035 7.76197 11.0458 7.6593 12.5099 7.60063C13.9732 7.54282 15.2024 7.51349 16.1975 7.51349C17.5894 7.51349 18.6701 7.59373 19.4378 7.7542C20.2047 7.91554 20.7651 8.14159 21.1217 8.43407C21.4766 8.72655 21.6822 9.05526 21.7393 9.42022C21.7963 9.78603 21.8248 10.1588 21.8248 10.5375C21.8248 11.2389 21.7821 11.8386 21.6965 12.3355C21.6117 12.8325 21.3483 13.2414 20.9078 13.5624C20.4673 13.8842 19.7784 14.1258 18.8404 14.2863C17.9024 14.4467 16.5809 14.527 14.876 14.527C14.1368 14.527 13.1711 14.5054 11.9771 14.4614C10.7832 14.4174 9.51876 14.3078 8.18302 14.1327V7.90778ZM8.26813 20.9741C9.66913 21.2073 11.0986 21.3376 12.5582 21.3668C14.0178 21.3959 15.5351 21.4096 17.111 21.4096L22.9778 30.5578H30.5946V28.8156L25.1663 20.277C27.0335 19.4642 28.3328 18.3102 29.0626 16.8141C29.7916 15.3188 30.1569 13.6555 30.1569 11.8259V10.0837C30.1569 8.77708 29.9673 7.54247 29.5882 6.38073C29.2082 5.21984 28.537 4.203 27.5746 3.33191C26.6113 2.46081 25.3266 1.77149 23.7214 1.26221C22.1162 0.75464 20.0879 0.5 17.6366 0.5H16.4105C13.755 0.5 11.0477 0.572877 8.28967 0.717773C5.53247 0.863526 2.89761 1.0813 0.387695 1.37109V30.5578H8.26813V20.9741Z" fill="#333433"/>
<path fill-rule="evenodd" clip-rule="evenodd" d="M82.6819 23.38H41.9532V19.3421H78.4155V12.1643H41.9532V7.67781H82.6819V0.5H34.2734V30.5578H82.6819V23.38Z" fill="#333433"/>
<path fill-rule="evenodd" clip-rule="evenodd" d="M101.851 7.72284L106.178 17.9964H97.5243L101.851 7.72284ZM94.6823 24.7257H108.978L111.438 30.5578H118.31V28.7636L105.669 0.5H98.0335L85.3926 28.7636V30.5578H92.2645L94.6823 24.7257Z" fill="#333433"/>
<path fill-rule="evenodd" clip-rule="evenodd" d="M130.052 23.38V0.5H122.377V30.5578H145.807V23.38H130.052Z" fill="#333433"/>
<path fill-rule="evenodd" clip-rule="evenodd" d="M8.03495 45.9701L22.9473 65.818H30.5946V35.1821H22.9473V54.5108L8.03495 35.1821H0.387695V65.818H8.03495V45.9701Z" fill="#333433"/>
<path d="M72.4855 45.5708V51.7077C72.4855 55.5064 72.4855 58.9121 64.613 58.9121C64.525 58.9121 50.0367 59.0242 49.9506 59.0233C42.3393 58.9484 42.3393 55.5764 42.3393 51.8203L42.3755 35.1821H34.503L34.4668 52.9555C34.4668 60.1162 37.747 66.0106 49.4245 66.0106L65.4003 65.8981C77.0778 65.8981 80.358 60.0036 80.358 52.8429V45.5708H72.4855Z" fill="#333433"/>
<path fill-rule="evenodd" clip-rule="evenodd" d="M72.4189 42.3742H83.6229V65.818H91.3791V42.3742H102.626V35.1821H72.4189V42.3742Z" fill="#333433"/>
<path fill-rule="evenodd" clip-rule="evenodd" d="M113.023 42.5583C114.482 42.4133 115.964 42.3116 117.467 42.2525C118.97 42.1949 120.232 42.1658 121.254 42.1658C122.683 42.1658 123.793 42.2458 124.581 42.4058C125.369 42.5658 125.945 42.7917 126.31 43.0818C126.675 43.3735 126.885 43.7002 126.945 44.0644C127.003 44.4286 127.033 44.7995 127.033 45.1771C127.033 45.8755 126.988 46.4723 126.901 46.9666C126.814 47.4616 126.544 47.8692 126.091 48.1884C125.638 48.5093 124.931 48.7493 123.968 48.9085C123.005 49.0694 121.647 49.1486 119.897 49.1486C119.138 49.1486 118.145 49.1269 116.92 49.0836C115.693 49.0402 114.395 48.931 113.023 48.756V42.5583ZM113.023 55.6963C114.424 55.9297 115.854 56.0605 117.314 56.0889C118.772 56.118 120.29 56.1322 121.866 56.1322L127.733 65.818H135.35V63.5526L129.922 54.9979C131.789 54.1836 133.088 53.0267 133.818 51.5281C134.547 50.0296 134.912 48.3635 134.912 46.5298V44.7845C134.912 43.4752 134.722 42.2383 134.343 41.0739C133.964 39.9112 133.292 38.8919 132.329 38.0193C131.366 37.1458 130.082 36.4557 128.477 35.9456C126.871 35.4372 124.843 35.1821 122.392 35.1821H121.166C118.51 35.1821 115.803 35.2546 113.045 35.3997C110.287 35.5464 107.653 35.7639 105.144 36.0548V65.818H113.023V55.6963Z" fill="#333433"/>
<path fill-rule="evenodd" clip-rule="evenodd" d="M139.223 65.818H146V35.1821H139.223V65.818Z" fill="#333433"/>
</g>
<defs>
<clipPath id="clip0_402_12264">
<rect width="146" height="100" fill="white" transform="translate(0 0.5)"/>
</clipPath>
</defs>
</svg>
