<svg width="143" height="128" viewBox="0 0 143 128" fill="none" xmlns="http://www.w3.org/2000/svg">
<path opacity="0.42" d="M123.098 72.9186C117.555 70.1368 111.534 67.813 107.006 63.7444C105.79 62.6527 104.681 61.4335 103.719 60.0468C102.82 58.7519 102.03 57.2927 100.672 56.5458C100.442 56.4189 100.197 56.3156 99.9433 56.2254L99.9422 56.2246C99.2535 55.9751 98.5067 55.8295 97.802 55.6073C96.3088 55.1327 95.0179 54.3132 93.77 53.4428C93.5458 53.286 93.3228 53.1276 93.1009 52.9701C90.8839 51.3961 88.6729 49.8144 86.4679 48.2249C74.3987 39.5307 62.5044 30.6069 50.7871 21.4532C49.0126 20.0691 47.2441 18.6772 45.478 17.2824C40.8053 13.5887 36.1627 9.85862 31.5466 6.0922C30.9167 5.57789 30.0574 5.07142 29.1336 5.68782C28.7577 5.93994 28.4553 6.33342 28.1693 6.71252C19.9432 17.6086 11.7172 28.5048 3.49004 39.3999C2.89399 40.189 2.26498 41.0519 2.11918 41.9274C1.92267 43.1065 2.65737 43.869 3.35772 44.4754C16.5204 55.8731 33.3276 62.577 45.9825 74.579C47.0757 75.6149 48.1474 76.6964 49.2178 77.7818C52.7944 81.4139 56.3736 85.1074 60.7922 87.4333C62.489 88.3297 64.3132 89.0218 66.3071 89.431C67.2825 89.6299 68.3236 89.7756 69.0019 90.437C69.5071 90.9292 69.7278 91.8187 69.4699 92.6893C69.3835 92.9875 69.2401 93.2834 69.0335 93.5603C68.6194 94.1131 67.9644 94.613 67.8934 95.2187C67.881 95.3283 67.8903 95.4275 67.9147 95.5186C67.9916 95.787 68.212 95.9732 68.4228 96.1296C81.8129 106.099 95.2008 116.069 108.591 126.039L112.167 123.381C112.207 123.328 112.247 123.272 112.285 123.216C113.433 121.619 114.434 119.788 115.383 118.121C119.491 110.909 125.083 104.493 130.596 98.1903C134.29 93.9648 137.984 89.7416 141.677 85.5176C141.155 85.052 140.627 84.594 140.095 84.1409C134.914 79.7516 129.223 75.992 123.098 72.9186Z" fill="#AB85FF"/>
<path opacity="0.05" d="M97.3856 63.3152C91.1817 68.1693 85.1616 73.4349 78.83 77.9812C73.4038 81.8768 67.4956 85.4776 61.7217 87.1799C61.4036 87.273 61.0916 87.3561 60.7922 87.434C62.4889 88.3303 64.3131 89.0224 66.307 89.4316C67.2825 89.6306 68.3235 89.7762 69.0018 90.4377C69.5071 90.9298 69.7277 91.8194 69.4699 92.69C79.6089 82.2918 90.0656 72.2819 100.788 62.7097C100.496 61.4957 98.609 62.3578 97.3856 63.3152Z" fill="#F2F2F2"/>
<path opacity="0.05" d="M99.9419 56.2246C99.2532 55.9751 98.5064 55.8295 97.8017 55.6074C96.3085 55.1327 95.0176 54.3132 93.7697 53.4429C90.9443 55.1679 88.0979 57.334 85.4426 59.3255C82.1327 61.8097 78.8943 64.4712 75.7487 67.2918C72.7974 69.9402 69.8856 73.611 66.8541 75.9687C75.5777 69.184 84.7604 63.432 94.0527 59.1642C96.0222 58.2598 98.0217 57.406 99.9419 56.2246Z" fill="#F2F2F2"/>
<path opacity="0.43" d="M93.3638 68.0713C89.0368 73.6182 83.4824 77.8462 78.0612 81.9439C75.9964 83.5047 73.9317 85.0655 71.8668 86.6263C71.2056 87.1261 70.5222 87.6379 69.8142 87.8703C69.1818 88.0775 68.6564 88.0022 68.3317 87.5853C70.0614 84.5866 77.8299 80.4588 80.7286 78.2147C84.3091 75.443 90.4984 71.7444 93.3638 68.0713Z" fill="#F2F2F2"/>
<path opacity="0.11" d="M110.545 120.185C105.785 116.836 100.82 113.767 95.8562 110.7C92.7512 108.781 89.6473 106.861 86.5434 104.943C84.2572 103.531 81.9712 102.117 79.623 100.797C75.9226 98.7134 72.0587 96.856 67.9148 95.519C67.9917 95.7874 68.2121 95.9737 68.4229 96.13C81.813 106.099 95.2009 116.07 108.591 126.039L112.167 123.382C112.207 123.328 112.247 123.272 112.285 123.217C112.269 122.01 111.659 120.969 110.545 120.185Z" fill="#F2F2F2"/>
<path opacity="0.11" d="M31.5464 6.09253C30.9164 5.57821 30.0571 5.07174 29.1334 5.68815C28.7575 5.94027 28.455 6.33375 28.1691 6.71285C19.943 17.6089 11.7169 28.5051 3.48981 39.4002C2.89376 40.1893 2.26475 41.0522 2.11895 41.9277C1.92243 43.1069 2.65713 43.8693 3.35749 44.4757C16.5202 55.8735 33.3274 62.5773 45.9822 74.5793C47.0755 75.6153 48.1472 76.6968 49.2176 77.7822C47.5195 75.9257 45.768 74.1246 43.9351 72.4194C41.8714 70.4924 39.7068 68.6884 37.5434 66.8828C30.0603 60.6421 22.5761 54.4005 15.0918 48.1589C13.6288 46.9398 12.1426 45.6878 11.2942 43.8581C10.4481 42.0277 10.3343 39.4867 11.5642 37.0981C12.1251 37.5364 12.686 37.9749 13.2469 38.4133C13.1631 32.5337 17.8697 26.1281 22.2135 20.6483C24.3343 17.9729 26.454 15.2967 28.5747 12.6215C29.0543 12.0177 29.6075 11.3593 30.2416 11.1737C30.7078 11.0392 31.106 11.1971 31.4772 11.3539C36.1433 13.3304 40.8116 15.3063 45.4777 17.2828C40.8051 13.589 36.1624 9.85905 31.5464 6.09253Z" fill="#F2F2F2"/>
<path opacity="0.16" d="M27.1939 38.7689C27.2149 40.2761 29.1717 40.065 30.6481 39.488C39.8157 35.9085 49.5197 28.9713 57.8072 29.9532C57.9617 30.5181 57.7248 31.3105 57.2299 31.885C58.8934 32.4723 60.5558 33.061 62.2193 33.6482C63.0647 33.9475 63.9542 34.286 64.3343 35.133C65.1894 37.0499 63.0565 39.999 61.1645 42.1018C63.9952 41.2828 66.8906 40.4543 69.4872 40.6758C71.7452 40.8677 73.6512 41.8422 75.5206 42.8079C79.2169 44.7141 82.9132 46.6202 86.6072 48.527C86.5608 48.4264 86.5144 48.3258 86.468 48.2251C74.3988 39.5309 62.5044 30.6071 50.7871 21.4534C43.2896 27.9585 34.3816 31.7273 27.1939 38.7689Z" fill="#F2F2F2"/>
<path opacity="0.43" d="M58.7532 27.6201C56.4636 27.7317 54.1556 27.8934 51.7825 28.442C48.0977 29.2955 44.3593 31.0639 40.6621 32.8196C37.0846 34.5169 33.5049 36.2148 29.9262 37.9137C30.005 36.6655 31.525 35.6875 32.7115 35.1337C37.9725 32.6774 43.1922 29.809 48.3058 26.5649C49.4754 25.8239 51.4494 24.1501 53.0865 23.2459L58.7532 27.6201Z" fill="#F2F2F2"/>
<path opacity="0.14" d="M80.5889 56.0733C80.9093 55.6985 81.2356 55.2897 81.3661 54.8466C81.6375 53.9256 80.8993 53.3295 80.0794 53.4201C79.2595 53.5105 78.4029 54.0583 77.5697 54.5106C72.3133 57.3643 66.6331 56.4708 64.2866 52.4209C63.5677 51.1801 63.0633 49.6177 61.7194 49.1584C60.4849 48.7365 58.8664 49.3662 57.3659 49.9552C51.9066 52.0978 46.3649 53.8469 41.1579 54.0726C38.2498 54.1986 35.4189 53.8562 32.3748 54.7841C31.7895 54.9625 31.0442 55.3602 30.8936 55.997C30.7778 56.4865 31.1046 56.7961 31.4159 57.0162C34.1714 58.9642 37.5571 60.0604 41.2666 60.2059C43.5924 60.2972 46.2945 60.141 47.4128 62.0258C48.0554 63.1088 48.0208 64.6617 48.1354 66.0898C48.4017 69.4061 49.5483 73.7918 52.657 74.5534C54.9251 75.1091 56.9218 73.3306 59.2038 71.6771C66.31 66.5281 74.4596 63.2441 80.5889 56.0733Z" fill="#F2F2F2"/>
<path opacity="0.15" d="M123.097 72.9187C117.555 70.1368 111.534 67.813 107.005 63.7444C107.733 66.4619 109.926 68.1713 112.28 69.3C114.967 70.5856 118.009 71.36 120.223 73.3062C119.075 74.8766 117.819 76.5441 116.234 77.385C114.244 78.4377 112.373 77.8729 110.422 78.0762C107.394 78.3893 104.222 80.5582 101.249 82.6452C107.717 82.2946 114.409 81.105 121.156 79.1057C119.686 81.6279 116.818 82.6297 114.398 83.3128C106.307 85.5975 98.1839 88.2966 90.0653 91.3994C88.7442 91.9057 87.2416 92.5743 86.4179 93.9369C91.7111 93.1582 97.0054 92.3802 102.3 91.6C104.615 91.2598 106.945 90.9162 109.312 90.1243C111.41 89.4193 113.511 88.3709 115.605 87.7328C121.46 85.9466 126.81 87.478 132.668 85.6354C134.404 85.0905 136.164 84.2523 137.867 83.983C138.459 83.889 139.268 84.0131 140.094 84.1411C134.913 79.7517 129.223 75.9921 123.097 72.9187Z" fill="#F2F2F2"/>
<path opacity="0.31" d="M112.738 86.8843C110.836 87.6974 108.945 88.7551 107.04 89.4176C104.812 90.1921 102.633 90.4033 100.48 90.609C97.7512 90.8695 95.023 91.1302 92.2947 91.3907C94.4406 90.8631 96.5866 90.3357 98.7325 89.8082C105.361 88.1786 112.059 86.5243 118.695 83.3372C119.615 82.895 120.647 82.3116 121.154 81.3304C121.915 79.8569 120.982 78.6625 120.088 77.8982C121.037 76.4599 122.89 76.4767 123.73 77.3481C124.57 78.2195 124.875 79.6226 125.736 80.4703C127.133 81.8462 129.75 81.5378 131.036 83.0358C131.397 83.4561 127.784 85.5449 127.211 85.6343C125.86 85.8452 124.563 85.1481 123.31 85.028C120.012 84.7117 116.353 85.3393 112.738 86.8843Z" fill="#F2F2F2"/>
<path opacity="0.14" d="M29.103 5.69827C29.103 5.69827 30.7577 4.83086 33.0301 7.17674C35.3024 9.52262 68.3515 35.2081 71.6365 37.5127C74.9216 39.8172 92.0895 52.1662 93.5765 53.0733C95.0635 53.9805 97.4577 55.4272 98.6779 55.7128C99.898 55.9985 101.698 56.6518 102.451 57.9829C103.205 59.3141 108.466 66.0532 114.18 68.4237C119.894 70.7941 129.224 76.3059 132.666 78.4834C136.107 80.6612 141.92 85.4277 141.692 85.4987C141.464 85.5698 141.107 83.8019 141.107 83.8019C141.107 83.8019 128.51 73.5142 122.717 70.5028C116.924 67.4914 112.591 66.6089 109.068 63.1256C105.546 59.6424 102.492 55.7782 100.5 55.224C98.5079 54.6698 86.0385 46.2211 82.1421 43.4413C78.2456 40.6616 47.9876 18.139 44.3319 15.0496C40.6763 11.9599 32.9335 5.44536 31.6014 5.15552C30.2693 4.8655 29.103 5.69827 29.103 5.69827Z" fill="#F2F2F2"/>
</svg>
