<svg width="45" height="372" viewBox="0 0 45 372" fill="none" xmlns="http://www.w3.org/2000/svg">
<g clip-path="url(#clip0_391_32889)">
<path d="M21.3037 6.94282L31.0331 16.545L36.9471 10.8007L27.3236 0.880493L21.3037 6.94282Z" fill="#8E8BC1"/>
<path d="M19.0558 8.72322L7.31272 14.3828L0.126953 32.8665L1.44116 34.3927L11.7853 24.7057C11.7853 24.7057 11.7641 24.6209 11.7641 24.5785C11.7641 23.3279 12.7815 22.3105 14.0321 22.3105C15.2828 22.3105 16.3002 23.3279 16.3002 24.5785C16.3002 25.7444 15.4099 26.6558 14.2865 26.783L4.06958 36.9999L5.38379 38.5261L25.4149 29.8142L29.5483 19.1521L19.0982 8.70203L19.0558 8.72322Z" fill="#8E8BC1"/>
</g>
<g clip-path="url(#clip1_391_32889)">
<path d="M10.9586 89.0564C8.52094 90.2223 6.76159 92.4691 5.23542 94.6948C3.70924 96.9417 2.26784 99.3158 0.126953 100.99C1.8863 103.11 4.85387 103.915 7.60947 103.894C10.9798 103.852 14.4349 102.665 16.7454 100.206C18.8438 97.9803 20.1157 94.0589 18.9074 91.0701C17.7204 88.1026 13.481 87.8482 10.9374 89.0564H10.9586Z" fill="#8E8BC1"/>
<path d="M22.9147 91.1969C29.0406 86.576 34.1067 80.5773 37.6677 73.7942C38.7912 71.6534 39.7662 69.3641 39.7239 66.9476C39.7239 66.5237 39.6815 66.0786 39.4483 65.697C38.7488 64.5312 36.9894 64.8703 35.8024 65.5486C31.5842 67.8803 27.8748 71.0386 24.5892 74.5361C21.4521 77.9064 17.7214 81.3827 16.0469 85.7493C16.1317 85.5373 18.209 86.1733 18.4209 86.3004C19.0356 86.6608 19.6715 87.0847 20.2227 87.5299C21.4097 88.4837 22.3636 89.7555 22.8935 91.1969H22.9147Z" fill="#8E8BC1"/>
</g>
<g clip-path="url(#clip2_391_32889)">
<path d="M0.126953 130.302V140.159H5.85013V136.025H14.3289V159.045H10.5346V164.768H23.8675V159.045H20.0733V136.025H28.552V140.159H34.2752V130.302H0.126953Z" fill="#8E8BC1"/>
</g>
<g clip-path="url(#clip3_391_32889)">
<path d="M24.5875 208.324H1.08008V229.119H24.5875V208.324Z" stroke="#8E8BC1" stroke-width="1.90772" stroke-miterlimit="10"/>
<path d="M43.1358 192.13H11.2344V218.435H43.1358V192.13Z" stroke="#8E8BC1" stroke-width="1.90772" stroke-miterlimit="10"/>
<path d="M27.7051 205.738L35.8235 198.743" stroke="#8E8BC1" stroke-width="1.90772" stroke-miterlimit="10"/>
<path d="M32.5801 195.881L38.1761 202.389L38.6212 196.326L32.5801 195.881Z" fill="#8E8BC1"/>
</g>
<g clip-path="url(#clip4_391_32889)">
<path d="M2.12012 294.762L27.514 270.322" stroke="#8E8BC1" stroke-width="5.72317" stroke-miterlimit="10"/>
<path d="M10.8527 263.857L14.4774 257.074L14.7317 264.768L21.5148 268.414L13.8203 268.668L10.1956 275.43L9.94122 267.757L3.1582 264.111L10.8527 263.857Z" fill="#8E8BC1"/>
<path d="M30.567 261.08L33.0258 256.48L33.2166 261.695L37.7951 264.154L32.5807 264.323L30.1218 268.923L29.9523 263.708L25.3525 261.25L30.567 261.08Z" fill="#8E8BC1"/>
<path d="M33.6398 274.9L35.3992 271.615L35.5264 275.345L38.8119 277.105L35.0812 277.232L33.3219 280.517L33.1947 276.787L29.9092 275.027L33.6398 274.9Z" fill="#8E8BC1"/>
</g>
<defs>
<clipPath id="clip0_391_32889">
<rect width="36.8191" height="37.6458" fill="white" transform="translate(0.126953 0.880493)"/>
</clipPath>
<clipPath id="clip1_391_32889">
<rect width="39.5959" height="38.96" fill="white" transform="translate(0.126953 64.9341)"/>
</clipPath>
<clipPath id="clip2_391_32889">
<rect width="34.1483" height="34.4662" fill="white" transform="translate(0.126953 130.302)"/>
</clipPath>
<clipPath id="clip3_391_32889">
<rect width="43.9836" height="38.8964" fill="white" transform="translate(0.126953 191.176)"/>
</clipPath>
<clipPath id="clip4_391_32889">
<rect width="38.6844" height="40.359" fill="white" transform="translate(0.126953 256.48)"/>
</clipPath>
</defs>
</svg>
